<svg xmlns="http://www.w3.org/2000/svg" width="172.684" height="186.725" viewBox="0 0 172.684 186.725">
  <path id="path0" d="M196.583,76.16c-1.594.5-3.1,1.338-16.983,9.447-3.85,2.249-8.26,4.795-9.8,5.658s-3.07,1.736-3.4,1.941c-1.776,1.1-6.46,3.84-11.6,6.786-3.19,1.829-6.34,3.657-7,4.063s-1.47.861-1.8,1.012-3.272,1.861-6.539,3.8-6.009,3.53-6.1,3.53-2.183,1.2-4.66,2.674c-7.46,4.428-10.695,8.245-13.159,15.526l-.947,2.8v84l1.06,2c1.126,2.123,1.746,2.59,9.14,6.878,5.223,3.029,26.581,15.342,35.711,20.588,4.131,2.374,9.042,5.22,10.912,6.325a40.521,40.521,0,0,0,3.631,2.009,12.415,12.415,0,0,1,2.008,1.2,14.4,14.4,0,0,0,1.966,1.2,10.95,10.95,0,0,1,1.68.932c7.445,4.652,10.132,4.974,12.133,1.451.72-1.266,1.055-76.026.361-80.526-.815-5.292-1.628-6.015-14.8-13.176-1.21-.658-2.38-1.33-2.6-1.493s-2.11-1.239-4.2-2.391c-6.6-3.64-8.01-4.423-16.4-9.114-4.51-2.521-9.1-5.076-10.2-5.677-5.142-2.808-9.646-5.352-10.959-6.19-6.61-4.22-5.823-13.006,1.308-14.605,2.305-.516,3.5-.28,19.251,3.8,3.96,1.025,8.19,2.106,9.4,2.4s4.36,1.105,7,1.8,5.88,1.522,7.2,1.841,3.48.849,4.8,1.178,3.177.768,4.127.978a11.216,11.216,0,0,1,2.134.633A54.614,54.614,0,0,0,197,141.271c3.824.7,5.995.5,8.534-.788,2.836-1.434,9.284-5.032,11.317-6.315a9.29,9.29,0,0,1,1.786-.968,34.686,34.686,0,0,0,3.507-1.935c1.791-1.065,4.336-2.533,5.656-3.262l4.2-2.321c.99-.547,6.3-3.554,11.8-6.683s11.53-6.534,13.4-7.567,4.03-2.254,4.8-2.712,2.128-1.223,3.018-1.7c13.761-7.387,15.3-11.278,5.382-13.637-1.21-.288-3.28-.814-4.6-1.168s-3.39-.887-4.6-1.185-4.27-1.084-6.8-1.746c-5.517-1.444-17.313-4.5-23.4-6.072-2.42-.623-6.56-1.7-9.2-2.4l-9.4-2.476c-10.744-2.827-12.828-3.114-15.817-2.178m60.617,44.3c-3.19,1.775-5.849,3.271-5.909,3.324-.335.294.5,1.374,1.43,1.855,1.329.685,6.858,3.83,7.679,4.368a10.877,10.877,0,0,0,1.2.665c.33.149,1.728.958,3.107,1.8a18.185,18.185,0,0,0,2.83,1.526c1,0,2.263,2.154,2.263,3.855,0,1.938-.43,2.45-3.334,3.964-.806.421-2.906,1.592-4.666,2.6-3.926,2.253-12.355,7-15.6,8.787-1.32.726-6.27,3.515-11,6.2s-9.5,5.376-10.6,5.988l-5.6,3.113c-6.172,3.432-7.533,4.448-9.207,6.879L208.2,177.7l-.119,40.052c-.129,43.429-.176,42.433,2.074,43.823,2.48,1.533,3.45,1.243,11.245-3.359,1.54-.909,3.07-1.786,3.4-1.949s.96-.516,1.4-.785,2.059-1.207,3.6-2.084,3.158-1.813,3.6-2.079,1.072-.618,1.4-.78,1.86-1.037,3.4-1.942,3.07-1.776,3.4-1.936.96-.51,1.4-.779,2.059-1.207,3.6-2.084,3.158-1.813,3.6-2.079,1.072-.618,1.4-.78,1.86-1.037,3.4-1.942,3.07-1.776,3.4-1.936.962-.507,1.4-.774c1.36-.818,7.105-4.137,8.8-5.081.88-.491,3.49-1.979,5.8-3.306s4.926-2.822,5.814-3.321c3.313-1.865,5.582-4.552,6.318-7.48.957-3.812,1.021-77.452.071-82.417-1.083-5.66-2.436-7.02-12-12.067-2.42-1.277-5.675-3.017-7.234-3.867-3.668-2-3.4-2.044-10.166,1.72" transform="translate(-114.6 -75.68)" fill="#e48405" fill-rule="evenodd"/>
</svg>
